<?xml version="1.0" encoding="UTF-8"?>
<svg xmlns="http://www.w3.org/2000/svg" height="148" width="148" class="pyqrcode"><path fill="#15648C" d="M0 0h148v148h-148z"/><path transform="scale(4)" stroke="#7D007D" class="pyqrline" d="M4 4.5h7m1 0h1m1 0h1m1 0h1m4 0h1m4 0h7m-29 1h1m5 0h1m1 0h1m1 0h3m4 0h1m2 0h1m1 0h1m5 0h1m-29 1h1m1 0h3m1 0h1m1 0h1m4 0h1m1 0h2m5 0h1m1 0h3m1 0h1m-29 1h1m1 0h3m1 0h1m2 0h6m1 0h3m3 0h1m1 0h3m1 0h1m-29 1h1m1 0h3m1 0h1m2 0h1m2 0h2m3 0h4m1 0h1m1 0h3m1 0h1m-29 1h1m5 0h1m1 0h1m1 0h1m1 0h2m2 0h2m4 0h1m5 0h1m-29 1h7m1 0h1m1 0h1m1 0h1m1 0h1m1 0h1m1 0h1m1 0h1m1 0h7m-21 1h1m1 0h4m3 0h2m-17 1h3m1 0h1m1 0h2m3 0h2m1 0h1m2 0h1m1 0h3m2 0h3m-29 1h1m1 0h2m1 0h1m1 0h1m1 0h1m3 0h2m3 0h1m1 0h3m1 0h1m2 0h2m-28 1h2m1 0h1m1 0h2m1 0h4m3 0h2m1 0h1m3 0h3m-25 1h3m6 0h1m1 0h1m2 0h3m1 0h3m3 0h1m2 0h1m-28 1h1m2 0h3m2 0h2m5 0h1m2 0h1m3 0h1m1 0h4m-26 1h3m1 0h2m1 0h2m2 0h4m1 0h2m1 0h7m-29 1h3m2 0h5m1 0h3m1 0h2m3 0h2m2 0h1m1 0h1m-27 1h4m3 0h1m2 0h3m2 0h1m2 0h3m4 0h1m2 0h1m-29 1h1m4 0h2m1 0h1m2 0h4m3 0h1m1 0h2m4 0h2m-28 1h2m3 0h1m3 0h1m3 0h1m1 0h2m1 0h1m2 0h1m1 0h2m1 0h2m-28 1h1m2 0h5m3 0h2m3 0h1m1 0h1m1 0h2m3 0h1m-26 1h1m1 0h2m5 0h2m2 0h1m1 0h4m3 0h2m4 0h1m-29 1h1m2 0h1m1 0h5m3 0h1m2 0h2m2 0h5m1 0h2m-20 1h2m2 0h2m1 0h1m1 0h1m1 0h2m3 0h1m1 0h1m1 0h1m-29 1h7m2 0h1m2 0h2m2 0h1m2 0h2m1 0h1m1 0h2m-26 1h1m5 0h1m2 0h2m1 0h1m1 0h7m3 0h2m1 0h1m-28 1h1m1 0h3m1 0h1m1 0h4m2 0h3m3 0h5m1 0h2m-28 1h1m1 0h3m1 0h1m1 0h1m1 0h1m3 0h3m4 0h1m-22 1h1m1 0h3m1 0h1m1 0h1m2 0h1m2 0h1m2 0h1m3 0h4m2 0h1m-28 1h1m5 0h1m2 0h1m3 0h1m2 0h3m3 0h2m1 0h1m1 0h1m-28 1h7m4 0h2m6 0h6m1 0h1"/></svg>
